<svg width="22" height="20" viewBox="0 0 22 20" fill="none" xmlns="http://www.w3.org/2000/svg">
<path d="M21.991 9.68847C21.991 4.33766 17.2531 -1.33514e-05 11.4086 -1.33514e-05C5.56403 -1.33514e-05 0.826111 4.33766 0.826111 9.68847C0.826111 14.5243 4.69596 18.5324 9.75505 19.2592V12.489H7.0681V9.68847H9.75505V7.55397C9.75505 5.1258 11.3349 3.78455 13.7522 3.78455C14.91 3.78455 16.121 3.97378 16.121 3.97378V6.35805H14.7866C13.472 6.35805 13.0621 7.10488 13.0621 7.87106V9.68847H15.997L15.5279 12.489H13.0621V19.2592C18.1211 18.5324 21.991 14.5243 21.991 9.68847Z" fill="#FFFFFF"/>
</svg>
