<svg width="28" height="24" viewBox="0 0 28 24" fill="none" xmlns="http://www.w3.org/2000/svg">
<path opacity="0.7" d="M6.42857 12C6.42857 10.0669 8.14476 8.5 10.2619 8.5H14.0952V15.5H10.2619C8.14476 15.5 6.42857 13.933 6.42857 12Z" fill="white"/>
<path d="M6.42857 19C6.42857 17.0669 8.14476 15.5 10.2619 15.5H14.0952V19C14.0952 20.933 12.3791 22.5 10.2619 22.5C8.14476 22.5 6.42857 20.933 6.42857 19Z" fill="white"/>
<path opacity="0.7" d="M14.0952 1.5H17.9286C20.0457 1.5 21.7619 3.06695 21.7619 5C21.7619 6.93305 20.0457 8.5 17.9286 8.5H14.0952V1.5Z" fill="white"/>
<path d="M6.42857 5C6.42857 3.06695 8.14476 1.5 10.2619 1.5H14.0952V8.5H10.2619C8.14476 8.5 6.42857 6.93305 6.42857 5Z" fill="white"/>
<path d="M14.0952 12C14.0952 10.0669 15.8114 8.5 17.9286 8.5C20.0457 8.5 21.7619 10.0669 21.7619 12C21.7619 13.933 20.0457 15.5 17.9286 15.5C15.8114 15.5 14.0952 13.933 14.0952 12Z" fill="white"/>
</svg>
