<svg width="21" height="20" viewBox="0 0 21 20" fill="none" xmlns="http://www.w3.org/2000/svg">
<path d="M20.6397 9.84362C20.6397 9.05185 20.5721 8.47408 20.4257 7.87491H10.9047V11.4485H16.4933C16.3806 12.3366 15.7722 13.6741 14.4201 14.5728L14.4011 14.6924L17.4115 16.907L17.6201 16.9268C19.5355 15.2469 20.6397 12.7753 20.6397 9.84362Z" fill="#0B0B0B"/>
<path d="M10.9047 19.2593C13.6427 19.2593 15.9412 18.4033 17.6201 16.9268L14.4201 14.5728C13.5638 15.1399 12.4145 15.5358 10.9047 15.5358C8.22308 15.5358 5.94707 13.856 5.13573 11.5342L5.01681 11.5438L1.88659 13.8442L1.84566 13.9522C3.51322 17.0979 6.93853 19.2593 10.9047 19.2593Z" fill="#0B0B0B"/>
<path d="M5.1357 11.5342C4.92163 10.935 4.79773 10.293 4.79773 9.62965C4.79773 8.96623 4.92163 8.32428 5.12444 7.72511L5.11877 7.5975L1.94932 5.26013L1.84563 5.30697C1.15834 6.61234 0.763977 8.07821 0.763977 9.62965C0.763977 11.1811 1.15834 12.6469 1.84563 13.9522L5.1357 11.5342Z" fill="#0B0B0B"/>
<path d="M10.9047 3.72343C12.8089 3.72343 14.0933 4.5045 14.8258 5.15722L17.6877 2.5037C15.93 0.952267 13.6427 0 10.9047 0C6.93853 0 3.51322 2.1613 1.84566 5.30695L5.12447 7.72509C5.94707 5.40329 8.22307 3.72343 10.9047 3.72343Z" fill="#0B0B0B"/>
</svg>
