<svg width="32" height="27" viewBox="0 0 32 27" fill="#C2E7D6" xmlns="http://www.w3.org/2000/svg">
<path d="M0 5.2789C0 2.36344 2.36344 0 5.2789 0H15.8367C18.7522 0 21.1156 2.36344 21.1156 5.2789V21.1156C21.1156 24.0311 18.7522 26.3945 15.8367 26.3945H5.27891C2.36345 26.3945 0 24.0311 0 21.1156V5.2789Z" />
<path d="M23.7551 3.95917C23.7551 1.77258 25.5277 0 27.7143 0C29.9009 0 31.6735 1.77258 31.6735 3.95918V22.4353C31.6735 24.6219 29.9009 26.3945 27.7143 26.3945C25.5277 26.3945 23.7551 24.6219 23.7551 22.4353V3.95917Z" />
</svg>
