<svg width="143" height="25" viewBox="0 0 143 25" fill="white" xmlns="http://www.w3.org/2000/svg">
<path d="M5.46143 18.9628C4.56665 18.9628 3.82233 18.8123 3.22845 18.5114C2.64249 18.2105 2.17927 17.8146 1.83878 17.3237C1.50621 16.8327 1.26866 16.2903 1.12613 15.6965C0.991516 15.1026 0.92421 14.5087 0.92421 13.9148C0.92421 13.6218 0.92421 13.317 0.92421 13.0003C0.92421 12.6835 0.92421 12.3628 0.92421 12.0382V6.11129H4.05988V11.5512C4.05988 11.8363 4.05988 12.1094 4.05988 12.3707C4.05988 12.6321 4.05988 12.8775 4.05988 13.1072C4.05988 13.6694 4.12718 14.192 4.2618 14.675C4.39641 15.1501 4.64188 15.5341 4.9982 15.8271C5.36245 16.1201 5.87318 16.2666 6.5304 16.2666C7.15595 16.2666 7.6944 16.0845 8.14575 15.7202C8.59709 15.348 8.9455 14.8809 9.19097 14.3187C9.44436 13.7565 9.57105 13.1863 9.57105 12.6083L10.64 13.3209C10.64 14.089 10.5213 14.8136 10.2837 15.4945C10.0462 16.1676 9.7017 16.7654 9.25036 17.288C8.79901 17.8107 8.25264 18.2224 7.61126 18.5233C6.97779 18.8163 6.26118 18.9628 5.46143 18.9628ZM9.57105 18.7252V6.11129H12.6948V18.7252H9.57105Z" />
<path d="M15.4046 18.7252V6.11129H18.4927V18.7252H15.4046ZM16.9605 3.78329C16.4538 3.78329 16.0103 3.64868 15.6303 3.37946C15.2581 3.10231 15.072 2.71827 15.072 2.22733C15.072 1.74432 15.2581 1.36819 15.6303 1.09897C16.0103 0.829745 16.4538 0.695133 16.9605 0.695133C17.4594 0.695133 17.8949 0.829745 18.2671 1.09897C18.6392 1.36819 18.8253 1.74432 18.8253 2.22733C18.8253 2.71827 18.6392 3.10231 18.2671 3.37946C17.8949 3.64868 17.4594 3.78329 16.9605 3.78329Z" />
<path d="M23.1087 19.0578C22.6177 19.0578 22.202 18.8876 21.8615 18.5471C21.521 18.2066 21.3508 17.7909 21.3508 17.2999C21.3508 16.8169 21.521 16.4051 21.8615 16.0647C22.202 15.7162 22.6177 15.542 23.1087 15.542C23.5917 15.542 24.0034 15.7162 24.3439 16.0647C24.6923 16.4051 24.8665 16.8169 24.8665 17.2999C24.8665 17.7909 24.6923 18.2066 24.3439 18.5471C24.0034 18.8876 23.5917 19.0578 23.1087 19.0578Z" />
<path d="M32.0946 18.9865C31.1523 18.9865 30.3248 18.84 29.6122 18.5471C28.8995 18.2462 28.3413 17.8146 27.9374 17.2524C27.5336 16.6902 27.3317 16.0132 27.3317 15.2214C27.3317 14.3583 27.5653 13.6496 28.0324 13.0953C28.5075 12.5331 29.145 12.1015 29.9447 11.8006C30.7445 11.4918 31.6313 11.2938 32.6053 11.2067C34.0464 11.0642 35.0521 10.9296 35.6222 10.8029C36.2002 10.6683 36.4892 10.4545 36.4892 10.1615C36.4892 10.1536 36.4892 10.1496 36.4892 10.1496C36.4892 10.1417 36.4892 10.1378 36.4892 10.1378C36.4892 9.58349 36.2398 9.15589 35.741 8.855C35.2421 8.5541 34.5374 8.40365 33.6268 8.40365C32.6686 8.40365 31.9322 8.57389 31.4175 8.91438C30.9108 9.24695 30.6574 9.77748 30.6574 10.506H27.5692C27.5692 9.51618 27.8305 8.68079 28.3531 7.99981C28.8837 7.31092 29.6082 6.78831 30.5267 6.43198C31.4452 6.07565 32.4865 5.89749 33.6505 5.89749C34.7353 5.89749 35.7291 6.05982 36.6318 6.38447C37.5345 6.70912 38.259 7.20006 38.8054 7.85728C39.3517 8.51451 39.6249 9.33406 39.6249 10.3159C39.6249 10.4822 39.6249 10.6485 39.6249 10.8148C39.6249 10.9811 39.6249 11.1474 39.6249 11.3136V16.0647C39.6249 16.3656 39.6328 16.6625 39.6487 16.9555C39.6724 17.2405 39.716 17.4979 39.7793 17.7275C39.8585 17.9809 39.9535 18.1947 40.0644 18.3689C40.1752 18.5431 40.2623 18.6619 40.3257 18.7252H37.2375C37.1821 18.6698 37.1029 18.5629 37 18.4045C36.905 18.2382 36.8179 18.0482 36.7387 17.8344C36.6595 17.5969 36.6001 17.3435 36.5605 17.0742C36.5209 16.7971 36.5011 16.4922 36.5011 16.1597L37.1188 16.5873C36.8812 17.0703 36.517 17.4939 36.026 17.8582C35.543 18.2145 34.965 18.4916 34.2919 18.6896C33.6188 18.8875 32.8864 18.9865 32.0946 18.9865ZM32.8547 16.5279C33.504 16.5279 34.1058 16.417 34.6601 16.1953C35.2144 15.9736 35.6618 15.6331 36.0023 15.1738C36.3428 14.7067 36.513 14.1088 36.513 13.3803V11.6937L37.2732 12.5489C36.7664 12.7389 36.1567 12.8973 35.444 13.024C34.7314 13.1428 34.0108 13.2378 33.2823 13.3091C32.3479 13.3962 31.6432 13.5585 31.1681 13.7961C30.7009 14.0336 30.4673 14.4216 30.4673 14.96C30.4673 15.4827 30.6653 15.8746 31.0612 16.1359C31.4571 16.3972 32.055 16.5279 32.8547 16.5279Z" />
<path d="M48.5234 18.9865C47.1931 18.9865 46.0172 18.7133 44.9958 18.167C43.9743 17.6206 43.1746 16.8525 42.5965 15.8627C42.0185 14.8729 41.7295 13.7129 41.7295 12.3826C41.7295 11.0603 42.0185 9.9121 42.5965 8.93814C43.1746 7.96418 43.9743 7.2159 44.9958 6.69329C46.0172 6.16276 47.1931 5.89749 48.5234 5.89749C49.5211 5.89749 50.404 6.04398 51.1721 6.33696C51.9402 6.62994 52.5855 7.0219 53.1081 7.51284C53.6387 7.99586 54.0425 8.53034 54.3196 9.1163C54.5968 9.69434 54.7354 10.2724 54.7354 10.8504C54.7354 10.8663 54.7354 10.8821 54.7354 10.8979C54.7354 10.9138 54.7354 10.9296 54.7354 10.9454H51.6353C51.6353 10.9059 51.6314 10.8623 51.6234 10.8148C51.6155 10.7673 51.6076 10.7198 51.5997 10.6723C51.5363 10.2684 51.374 9.90418 51.1127 9.57953C50.8514 9.24696 50.503 8.98169 50.0675 8.78373C49.632 8.58577 49.1054 8.48679 48.4878 8.48679C47.8305 8.48679 47.2288 8.63328 46.6824 8.92626C46.1439 9.21132 45.7124 9.64287 45.3877 10.2209C45.071 10.799 44.9126 11.5195 44.9126 12.3826C44.9126 13.2378 45.071 13.9663 45.3877 14.5681C45.7045 15.162 46.1321 15.6173 46.6705 15.934C47.2169 16.2428 47.8226 16.3972 48.4878 16.3972C49.1925 16.3972 49.7666 16.2903 50.21 16.0765C50.6614 15.8548 51.0019 15.5618 51.2315 15.1976C51.4611 14.8254 51.5918 14.4216 51.6234 13.9861H54.7354C54.7354 14.572 54.6007 15.162 54.3315 15.7558C54.0623 16.3418 53.6664 16.8802 53.1438 17.3712C52.6212 17.8621 51.9718 18.2541 51.1959 18.5471C50.4278 18.84 49.537 18.9865 48.5234 18.9865Z" />
<path d="M61.4061 18.9865C60.4638 18.9865 59.6363 18.84 58.9237 18.5471C58.211 18.2462 57.6528 17.8146 57.2489 17.2524C56.8451 16.6902 56.6432 16.0132 56.6432 15.2214C56.6432 14.3583 56.8768 13.6496 57.344 13.0953C57.8191 12.5331 58.4565 12.1015 59.2562 11.8006C60.056 11.4918 60.9428 11.2938 61.9168 11.2067C63.3579 11.0642 64.3636 10.9296 64.9337 10.8029C65.5117 10.6683 65.8008 10.4545 65.8008 10.1615C65.8008 10.1536 65.8008 10.1496 65.8008 10.1496C65.8008 10.1417 65.8008 10.1378 65.8008 10.1378C65.8008 9.58349 65.5513 9.15589 65.0525 8.855C64.5536 8.5541 63.8489 8.40365 62.9383 8.40365C61.9802 8.40365 61.2437 8.57389 60.7291 8.91438C60.2223 9.24695 59.9689 9.77748 59.9689 10.506H56.8807C56.8807 9.51618 57.142 8.68079 57.6646 7.99981C58.1952 7.31092 58.9197 6.78831 59.8382 6.43198C60.7568 6.07565 61.798 5.89749 62.962 5.89749C64.0468 5.89749 65.0406 6.05982 65.9433 6.38447C66.846 6.70912 67.5705 7.20006 68.1169 7.85728C68.6632 8.51451 68.9364 9.33406 68.9364 10.3159C68.9364 10.4822 68.9364 10.6485 68.9364 10.8148C68.9364 10.9811 68.9364 11.1474 68.9364 11.3136V16.0647C68.9364 16.3656 68.9443 16.6625 68.9602 16.9555C68.9839 17.2405 69.0275 17.4979 69.0908 17.7275C69.17 17.9809 69.265 18.1947 69.3759 18.3689C69.4868 18.5431 69.5739 18.6619 69.6372 18.7252H66.549C66.4936 18.6698 66.4144 18.5629 66.3115 18.4045C66.2165 18.2382 66.1294 18.0482 66.0502 17.8344C65.971 17.5969 65.9116 17.3435 65.872 17.0742C65.8324 16.7971 65.8126 16.4922 65.8126 16.1597L66.4303 16.5873C66.1927 17.0703 65.8285 17.4939 65.3375 17.8582C64.8545 18.2145 64.2765 18.4916 63.6034 18.6896C62.9304 18.8875 62.1979 18.9865 61.4061 18.9865ZM62.1662 16.5279C62.8155 16.5279 63.4173 16.417 63.9716 16.1953C64.5259 15.9736 64.9733 15.6331 65.3138 15.1738C65.6543 14.7067 65.8245 14.1088 65.8245 13.3803V11.6937L66.5847 12.5489C66.0779 12.7389 65.4682 12.8973 64.7555 13.024C64.0429 13.1428 63.3223 13.2378 62.5938 13.3091C61.6595 13.3962 60.9547 13.5585 60.4796 13.7961C60.0124 14.0336 59.7788 14.4216 59.7788 14.96C59.7788 15.4827 59.9768 15.8746 60.3727 16.1359C60.7686 16.3972 61.3665 16.5279 62.1662 16.5279Z" />
<path d="M76.8372 18.9865C75.7999 18.9865 74.8378 18.7371 73.951 18.2382C73.072 17.7315 72.3673 16.9871 71.8368 16.0053C71.3062 15.0234 71.041 13.8158 71.041 12.3826C71.041 10.989 71.3102 9.80916 71.8486 8.84312C72.395 7.87708 73.1077 7.14463 73.9866 6.64578C74.8735 6.14692 75.8237 5.89749 76.8372 5.89749C77.827 5.89749 78.7416 6.14296 79.5809 6.6339C80.4203 7.11692 81.0933 7.78998 81.6001 8.65308C82.1069 9.51618 82.3603 10.506 82.3603 11.6225C82.3603 11.6541 82.3603 11.6858 82.3603 11.7175C82.3603 11.7492 82.3603 11.7808 82.3603 11.8125L80.8162 11.8481C80.8162 11.8244 80.8162 11.8006 80.8162 11.7769C80.8162 11.7452 80.8162 11.7175 80.8162 11.6937C80.8162 11.0682 80.6578 10.5218 80.3411 10.0546C80.0323 9.58744 79.6284 9.2232 79.1296 8.96189C78.6386 8.69267 78.116 8.55806 77.5617 8.55806C76.6511 8.55806 75.8751 8.86687 75.2337 9.48451C74.5924 10.0942 74.2717 11.0603 74.2717 12.3826C74.2717 13.6971 74.5924 14.6671 75.2337 15.2926C75.8751 15.9182 76.6511 16.2309 77.5617 16.2309C78.1398 16.2309 78.6743 16.0924 79.1652 15.8152C79.6561 15.5381 80.0521 15.158 80.353 14.675C80.6618 14.184 80.8162 13.6218 80.8162 12.9884L82.3603 13.0596C82.3603 14.1682 82.1108 15.1738 81.612 16.0765C81.121 16.9713 80.4599 17.68 79.6284 18.2026C78.797 18.7252 77.8666 18.9865 76.8372 18.9865ZM80.8162 18.7252V0.160645H83.9519V18.7252H80.8162Z" />
<path d="M87.9525 13.4278V11.2067H96.7775L96.4212 11.8006C96.4212 11.7531 96.4212 11.7016 96.4212 11.6462C96.4212 11.5829 96.4212 11.5314 96.4212 11.4918C96.4212 10.9454 96.2985 10.4347 96.053 9.95961C95.8075 9.47659 95.4354 9.08859 94.9365 8.79561C94.4377 8.49471 93.8042 8.34426 93.0361 8.34426C92.276 8.34426 91.6148 8.50659 91.0526 8.83124C90.4983 9.14798 90.0667 9.60724 89.7579 10.209C89.457 10.8108 89.3066 11.5314 89.3066 12.3707C89.3066 13.2338 89.4531 13.9782 89.746 14.6037C90.039 15.2214 90.4666 15.6965 91.0288 16.029C91.5989 16.3537 92.2918 16.516 93.1074 16.516C93.6617 16.516 94.1407 16.4645 94.5446 16.3616C94.9484 16.2587 95.277 16.1201 95.5304 15.9459C95.7917 15.7638 95.9857 15.5698 96.1124 15.3639C96.247 15.158 96.3262 14.9521 96.3499 14.7463H99.4619C99.4143 15.2768 99.2362 15.7954 98.9274 16.3022C98.6265 16.8011 98.2028 17.2564 97.6565 17.6681C97.1101 18.072 96.445 18.3966 95.661 18.6421C94.885 18.8796 93.9982 18.9984 93.0005 18.9984C91.6464 18.9984 90.4626 18.7213 89.4491 18.167C88.4355 17.6127 87.6437 16.8407 87.0736 15.8509C86.5114 14.8611 86.2303 13.7287 86.2303 12.4539C86.2303 11.1474 86.5154 10.0032 87.0855 9.02128C87.6635 8.03941 88.4633 7.27529 89.4847 6.72892C90.5062 6.17463 91.6781 5.89749 93.0005 5.89749C94.3624 5.89749 95.5383 6.17463 96.5281 6.72892C97.5258 7.2832 98.2939 8.05524 98.8323 9.04504C99.3708 10.0269 99.64 11.1711 99.64 12.4776C99.64 12.6439 99.6361 12.8221 99.6281 13.0121C99.6202 13.2022 99.6083 13.3407 99.5925 13.4278H87.9525Z" />
<path d="M109.817 18.7252V13.606C109.817 13.1388 109.817 12.731 109.817 12.3826C109.817 12.0263 109.817 11.7294 109.817 11.4918C109.817 11.183 109.797 10.8623 109.758 10.5297C109.718 10.1892 109.631 9.87646 109.496 9.5914C109.362 9.30634 109.152 9.07671 108.867 8.90251C108.59 8.72038 108.206 8.62932 107.715 8.62932C107.24 8.62932 106.836 8.7283 106.503 8.92626C106.179 9.1163 105.909 9.37365 105.696 9.6983C105.49 10.015 105.339 10.3793 105.244 10.791C105.149 11.1949 105.102 11.6106 105.102 12.0382L104.056 11.3374C104.056 10.3001 104.25 9.37365 104.638 8.55806C105.026 7.74247 105.577 7.09712 106.289 6.62202C107.01 6.139 107.861 5.89749 108.843 5.89749C109.857 5.89749 110.66 6.11129 111.254 6.53888C111.848 6.95855 112.272 7.52867 112.525 8.24924C112.786 8.96981 112.917 9.77748 112.917 10.6723C112.917 11.0048 112.917 11.4483 112.917 12.0025C112.917 12.5489 112.917 13.1943 112.917 13.9386V18.7252H109.817ZM101.978 18.7252V6.11129H105.102V18.7252H101.978ZM117.609 18.7252V13.6179C117.609 13.119 117.609 12.6954 117.609 12.347C117.609 11.9986 117.609 11.7056 117.609 11.4681C117.609 11.1355 117.589 10.8029 117.549 10.4703C117.51 10.1299 117.423 9.82499 117.288 9.55577C117.153 9.27863 116.944 9.05691 116.658 8.89063C116.373 8.71643 115.985 8.62932 115.494 8.62932C115.011 8.62932 114.604 8.72434 114.271 8.91438C113.946 9.10442 113.685 9.35781 113.487 9.67455C113.289 9.99128 113.143 10.3476 113.048 10.7435C112.961 11.1394 112.917 11.5354 112.917 11.9313L111.872 11.2424C111.872 10.2367 112.062 9.3301 112.442 8.52243C112.822 7.71475 113.368 7.07733 114.081 6.61014C114.794 6.13504 115.641 5.89749 116.623 5.89749C117.613 5.89749 118.408 6.09941 119.01 6.50325C119.612 6.90708 120.048 7.46137 120.317 8.1661C120.594 8.86291 120.732 9.65871 120.732 10.5535C120.732 10.9019 120.732 11.3453 120.732 11.8838C120.732 12.4222 120.732 13.0596 120.732 13.7961V18.7252H117.609Z" />
<path d="M123.902 24.1414C123.53 24.1414 123.198 24.1216 122.905 24.082C122.612 24.0503 122.429 24.0186 122.358 23.987V21.5521C122.461 21.5996 122.635 21.6352 122.881 21.659C123.134 21.6906 123.396 21.7065 123.665 21.7065C124.1 21.7065 124.476 21.6194 124.793 21.4452C125.118 21.271 125.395 21.0295 125.625 20.7206C125.854 20.4198 126.036 20.0674 126.171 19.6635L126.444 18.8678L122.097 6.11129H125.363L128.344 16.6348H127.964L130.874 6.11129H134.081L129.663 19.4973C129.354 20.4237 128.978 21.2353 128.535 21.9322C128.099 22.629 127.517 23.1714 126.789 23.5594C126.06 23.9474 125.098 24.1414 123.902 24.1414Z" />
<path d="M140.013 11.1871C139.499 11.1871 139.031 11.071 138.609 10.8387C138.191 10.6065 137.857 10.2921 137.607 9.89547C137.36 9.49888 137.237 9.05227 137.237 8.55563C137.237 8.05543 137.36 7.60703 137.607 7.21044C137.857 6.81385 138.191 6.50122 138.609 6.27255C139.031 6.04031 139.499 5.92419 140.013 5.92419C140.528 5.92419 140.994 6.04031 141.412 6.27255C141.83 6.50122 142.162 6.81385 142.409 7.21044C142.659 7.60703 142.784 8.05543 142.784 8.55563C142.784 9.05227 142.659 9.49888 142.409 9.89547C142.162 10.2921 141.83 10.6065 141.412 10.8387C140.994 11.071 140.528 11.1871 140.013 11.1871ZM140.013 10.6994C140.464 10.6994 140.855 10.6083 141.187 10.426C141.523 10.2438 141.784 9.99194 141.969 9.67038C142.155 9.34882 142.248 8.97724 142.248 8.55563C142.248 8.13046 142.155 7.75709 141.969 7.43553C141.784 7.11397 141.523 6.86208 141.187 6.67986C140.855 6.49764 140.464 6.40654 140.013 6.40654C139.563 6.40654 139.17 6.49764 138.834 6.67986C138.498 6.86208 138.238 7.11397 138.052 7.43553C137.866 7.75709 137.773 8.13046 137.773 8.55563C137.773 8.97724 137.866 9.34882 138.052 9.67038C138.238 9.99194 138.498 10.2438 138.834 10.426C139.17 10.6083 139.563 10.6994 140.013 10.6994ZM139.038 9.89547V7.15349H140.158C140.494 7.15349 140.749 7.22317 140.924 7.36251C141.099 7.50185 141.187 7.70908 141.187 7.98419C141.187 8.20929 141.135 8.379 141.032 8.49333C140.932 8.60409 140.805 8.6684 140.651 8.68627C140.783 8.69699 140.885 8.74343 140.957 8.82561C141.032 8.90779 141.069 9.01855 141.069 9.15789C141.069 9.25436 141.069 9.37227 141.069 9.51161C141.069 9.64738 141.069 9.43635 141.069 9.5364C141.069 9.64001 141.076 9.72219 141.091 9.78292C141.108 9.84009 141.125 9.87761 141.139 9.89547H140.522C140.519 9.87761 140.51 9.8383 140.496 9.77757C140.481 9.71683 140.474 9.63644 140.474 9.5364C140.474 9.44707 140.474 9.69025 140.474 9.60808C140.474 9.52233 140.474 9.43658 140.474 9.35083C140.474 9.22578 140.449 9.13645 140.399 9.08286C140.353 9.02569 140.29 8.99175 140.212 8.98103C140.133 8.96674 140.045 8.95959 139.949 8.95959H139.649V9.89547H139.038ZM139.649 8.45046H140.045C140.242 8.45046 140.385 8.4058 140.474 8.31647C140.564 8.22715 140.608 8.12354 140.608 8.00563C140.608 7.88058 140.569 7.7859 140.49 7.72159C140.412 7.65727 140.287 7.62512 140.115 7.62512H139.649V8.45046Z" />
</svg>
