<svg width="20" height="18" viewBox="0 0 20 18" fill="none" xmlns="http://www.w3.org/2000/svg">
<path d="M15.5 17.0238H4.50001C3.48749 17.0238 2.66668 16.203 2.66668 15.1905V8.51192L5.41668 5.95835L10 1.70239L14.5833 5.95835L17.3333 8.51192V15.1905C17.3333 16.203 16.5125 17.0238 15.5 17.0238Z"/>
<path d="M10 1.70239L10.5444 1.11616C10.2374 0.831137 9.7626 0.831137 9.45565 1.11616L10 1.70239ZM5.41668 5.95835L4.87232 5.37211L5.41668 5.95835ZM0.288983 9.62806C-0.0347859 9.92871 -0.0535335 10.4349 0.247109 10.7587C0.547751 11.0824 1.05394 11.1012 1.3777 10.8005L0.288983 9.62806ZM18.6223 10.8005C18.9461 11.1012 19.4523 11.0824 19.7529 10.7587C20.0536 10.4349 20.0348 9.92871 19.711 9.62806L18.6223 10.8005ZM14.5833 5.95835L15.1277 5.37211L14.5833 5.95835ZM4.50001 17.8238H15.5V16.2238H4.50001V17.8238ZM18.1333 15.1905V8.51192H16.5333V15.1905H18.1333ZM3.46668 15.1905V8.51192H1.86668V15.1905H3.46668ZM9.45565 1.11616L4.87232 5.37211L5.96104 6.54458L10.5444 2.28863L9.45565 1.11616ZM4.87232 5.37211L2.12232 7.92568L3.21104 9.09815L5.96104 6.54458L4.87232 5.37211ZM2.12232 7.92568L0.288983 9.62806L1.3777 10.8005L3.21104 9.09815L2.12232 7.92568ZM19.711 9.62806L17.8777 7.92568L16.789 9.09815L18.6223 10.8005L19.711 9.62806ZM17.8777 7.92568L15.1277 5.37211L14.039 6.54458L16.789 9.09815L17.8777 7.92568ZM15.1277 5.37211L10.5444 1.11616L9.45565 2.28863L14.039 6.54458L15.1277 5.37211ZM15.5 17.8238C16.9544 17.8238 18.1333 16.6448 18.1333 15.1905H16.5333C16.5333 15.7612 16.0707 16.2238 15.5 16.2238V17.8238ZM4.50001 16.2238C3.92932 16.2238 3.46668 15.7612 3.46668 15.1905H1.86668C1.86668 16.6448 3.04566 17.8238 4.50001 17.8238V16.2238Z" fill="#0B0B0B"/>
</svg>
